<svg xmlns="http://www.w3.org/2000/svg" xmlns:xlink="http://www.w3.org/1999/xlink" width="89" height="30" zoomAndPan="magnify" viewBox="0 0 375 374.999991" preserveAspectRatio="xMidYMid meet" version="1.0"><defs><g/><clipPath id="47738f9879"><path d="M 68.59375 168.355469 L 106.84375 168.355469 L 106.84375 206.605469 L 68.59375 206.605469 Z M 68.59375 168.355469 " clip-rule="nonzero"/></clipPath></defs><g clip-path="url(#47738f9879)"><path fill="#ffffff" d="M 76.226562 199.722656 L 76.660156 200.152344 L 76.703125 200.195312 C 78.050781 201.589844 78.035156 203.839844 76.660156 205.214844 C 75.285156 206.59375 73.039062 206.605469 71.644531 205.257812 L 71.597656 205.214844 L 71.167969 204.785156 L 69.988281 203.601562 C 68.597656 202.210938 68.597656 199.933594 69.988281 198.539062 C 71.378906 197.144531 73.660156 197.144531 75.050781 198.539062 Z M 100.101562 180.128906 L 100.519531 179.707031 L 105.414062 174.8125 C 106.804688 173.421875 106.804688 171.144531 105.414062 169.746094 C 104.019531 168.355469 101.742188 168.355469 100.351562 169.746094 L 95.941406 174.164062 L 95.460938 174.644531 L 95.039062 175.0625 L 92.507812 177.59375 C 91.121094 178.988281 91.121094 181.265625 92.507812 182.660156 L 95.039062 185.191406 L 95.492188 185.640625 L 100.386719 190.535156 C 101.777344 191.925781 104.050781 191.925781 105.449219 190.535156 C 106.839844 189.144531 106.839844 186.863281 105.449219 185.472656 L 100.554688 180.574219 Z M 70.191406 169.78125 L 70.191406 169.777344 C 71.582031 168.386719 73.859375 168.386719 75.25 169.777344 L 105.378906 199.929688 C 106.777344 201.320312 106.777344 203.601562 105.378906 204.992188 C 103.988281 206.386719 101.714844 206.386719 100.320312 204.992188 L 70.191406 174.839844 C 68.800781 173.449219 68.800781 171.171875 70.191406 169.78125 Z M 70.144531 184.214844 C 71.535156 182.824219 73.8125 182.824219 75.207031 184.214844 L 78.636719 187.648438 L 86.0625 195.078125 L 90.957031 199.972656 C 92.347656 201.363281 92.347656 203.644531 90.957031 205.035156 C 89.558594 206.429688 87.285156 206.429688 85.894531 205.035156 L 81 200.140625 L 73.578125 192.710938 L 70.144531 189.28125 C 68.753906 187.886719 68.753906 185.605469 70.144531 184.214844 Z M 70.144531 184.214844 " fill-opacity="1" fill-rule="evenodd"/></g><g fill="#38b6ff" fill-opacity="1"><g transform="translate(135.256006, 197.870598)"><g><path d="M 0.734375 0 L 8.84375 -22.1875 L 13.40625 -22.1875 L 21.515625 0 L 17.203125 0 L 15.4375 -5.140625 L 6.78125 -5.140625 L 4.96875 0 Z M 7.890625 -8.296875 L 14.328125 -8.296875 L 11.09375 -17.515625 Z M 7.890625 -8.296875 "/></g></g></g><g fill="#38b6ff" fill-opacity="1"><g transform="translate(162.381434, 197.870598)"><g><path d="M 2.15625 0 L 2.15625 -22.1875 L 9.734375 -22.1875 C 12.328125 -22.1875 14.460938 -21.722656 16.140625 -20.796875 C 17.816406 -19.878906 19.0625 -18.59375 19.875 -16.9375 C 20.695312 -15.28125 21.109375 -13.332031 21.109375 -11.09375 C 21.109375 -8.851562 20.695312 -6.898438 19.875 -5.234375 C 19.0625 -3.578125 17.816406 -2.289062 16.140625 -1.375 C 14.460938 -0.457031 12.328125 0 9.734375 0 Z M 6.203125 -3.484375 L 9.53125 -3.484375 C 11.394531 -3.484375 12.863281 -3.785156 13.9375 -4.390625 C 15.019531 -4.992188 15.789062 -5.859375 16.25 -6.984375 C 16.71875 -8.117188 16.953125 -9.488281 16.953125 -11.09375 C 16.953125 -12.675781 16.71875 -14.035156 16.25 -15.171875 C 15.789062 -16.316406 15.019531 -17.195312 13.9375 -17.8125 C 12.863281 -18.425781 11.394531 -18.734375 9.53125 -18.734375 L 6.203125 -18.734375 Z M 6.203125 -3.484375 "/></g></g></g><g fill="#ffffff" fill-opacity="1"><g transform="translate(189.818502, 197.870598)"><g><path d="M 2.34375 0 L 2.34375 -22.1875 L 9.5 -22.1875 C 11.238281 -22.1875 12.65625 -21.898438 13.75 -21.328125 C 14.851562 -20.753906 15.664062 -19.96875 16.1875 -18.96875 C 16.71875 -17.976562 16.984375 -16.882812 16.984375 -15.6875 C 16.984375 -14.289062 16.609375 -13.03125 15.859375 -11.90625 C 15.109375 -10.789062 13.941406 -10 12.359375 -9.53125 L 17.203125 0 L 14.0625 0 L 9.5625 -9.15625 L 5 -9.15625 L 5 0 Z M 5 -11.25 L 9.3125 -11.25 C 11.019531 -11.25 12.265625 -11.660156 13.046875 -12.484375 C 13.835938 -13.304688 14.234375 -14.363281 14.234375 -15.65625 C 14.234375 -16.96875 13.847656 -18.007812 13.078125 -18.78125 C 12.304688 -19.550781 11.039062 -19.9375 9.28125 -19.9375 L 5 -19.9375 Z M 5 -11.25 "/></g></g></g><g fill="#ffffff" fill-opacity="1"><g transform="translate(213.521689, 197.870598)"><g><path d="M 12.421875 0.375 C 10.242188 0.375 8.335938 -0.101562 6.703125 -1.0625 C 5.066406 -2.019531 3.785156 -3.363281 2.859375 -5.09375 C 1.941406 -6.832031 1.484375 -8.832031 1.484375 -11.09375 C 1.484375 -13.351562 1.941406 -15.34375 2.859375 -17.0625 C 3.785156 -18.78125 5.066406 -20.125 6.703125 -21.09375 C 8.335938 -22.070312 10.242188 -22.5625 12.421875 -22.5625 C 14.617188 -22.5625 16.535156 -22.070312 18.171875 -21.09375 C 19.804688 -20.125 21.078125 -18.78125 21.984375 -17.0625 C 22.898438 -15.34375 23.359375 -13.351562 23.359375 -11.09375 C 23.359375 -8.832031 22.898438 -6.832031 21.984375 -5.09375 C 21.078125 -3.363281 19.804688 -2.019531 18.171875 -1.0625 C 16.535156 -0.101562 14.617188 0.375 12.421875 0.375 Z M 12.421875 -1.96875 C 14.046875 -1.96875 15.472656 -2.332031 16.703125 -3.0625 C 17.941406 -3.789062 18.90625 -4.832031 19.59375 -6.1875 C 20.28125 -7.550781 20.625 -9.1875 20.625 -11.09375 C 20.625 -12.988281 20.28125 -14.613281 19.59375 -15.96875 C 18.90625 -17.320312 17.941406 -18.363281 16.703125 -19.09375 C 15.472656 -19.820312 14.046875 -20.1875 12.421875 -20.1875 C 10.796875 -20.1875 9.363281 -19.820312 8.125 -19.09375 C 6.894531 -18.363281 5.9375 -17.320312 5.25 -15.96875 C 4.5625 -14.613281 4.21875 -12.988281 4.21875 -11.09375 C 4.21875 -9.1875 4.5625 -7.550781 5.25 -6.1875 C 5.9375 -4.832031 6.894531 -3.789062 8.125 -3.0625 C 9.363281 -2.332031 10.796875 -1.96875 12.421875 -1.96875 Z M 12.421875 -1.96875 "/></g></g></g><g fill="#ffffff" fill-opacity="1"><g transform="translate(243.277176, 197.870598)"><g><path d="M 0.953125 0 L 9.125 -22.1875 L 11.953125 -22.1875 L 20.09375 0 L 17.265625 0 L 15.234375 -5.703125 L 5.796875 -5.703125 L 3.734375 0 Z M 6.59375 -7.859375 L 14.453125 -7.859375 L 10.515625 -18.828125 Z M 6.59375 -7.859375 "/></g></g></g><g fill="#ffffff" fill-opacity="1"><g transform="translate(269.230172, 197.870598)"><g><path d="M 2.34375 0 L 2.34375 -22.1875 L 9.15625 -22.1875 C 13.0625 -22.1875 15.9375 -21.191406 17.78125 -19.203125 C 19.632812 -17.210938 20.5625 -14.488281 20.5625 -11.03125 C 20.5625 -7.625 19.632812 -4.929688 17.78125 -2.953125 C 15.9375 -0.984375 13.0625 0 9.15625 0 Z M 5 -2.21875 L 9.09375 -2.21875 C 11.25 -2.21875 12.960938 -2.570312 14.234375 -3.28125 C 15.515625 -3.988281 16.429688 -5 16.984375 -6.3125 C 17.535156 -7.632812 17.8125 -9.207031 17.8125 -11.03125 C 17.8125 -12.882812 17.535156 -14.476562 16.984375 -15.8125 C 16.429688 -17.144531 15.515625 -18.171875 14.234375 -18.890625 C 12.960938 -19.609375 11.25 -19.96875 9.09375 -19.96875 L 5 -19.96875 Z M 5 -2.21875 "/></g></g></g></svg>